<?xml version="1.0" encoding="utf-8"?>
<svg xmlns="http://www.w3.org/2000/svg" viewBox="0 0 500 500" xmlns:bx="https://boxy-svg.com">
  <path d="M 150.302 333.953 L 182.719 605.184 L 117.884 605.184 L 150.302 333.953 Z" bx:shape="triangle 117.884 333.953 64.835 271.231 0.5 0 1@0812bd63" style="transform-box: fill-box; transform-origin: 50% 50%; stroke: rgb(203, 4, 4); fill: rgb(56, 4, 14); stroke-opacity: 0;" transform="matrix(-0.656058, -0.754711, 0.754711, -0.656058, 18.566033, -211.808316)"/>
  <path d="M 226.839 90.835 L 282.118 137.097 L 216.853 137.097 L 226.839 90.835 Z" bx:shape="triangle 216.853 90.835 65.265 46.262 0.153 0 1@2898debe" style="stroke: rgb(203, 4, 4); fill: rgb(56, 4, 14); stroke-opacity: 0; transform-box: fill-box; transform-origin: 50% 50%;" transform="matrix(0.656058, 0.75471, -0.745819, 0.666287, 38.898683, 39.84962)"/>
  <path d="M 340.923 254.372 L 340.923 315.878 L 296.882 315.878 L 340.923 254.372 Z" bx:shape="triangle 296.882 254.372 44.041 61.506 1 0 1@9253dd66" style="stroke: rgb(244, 99, 30); fill: rgb(100, 13, 20); stroke-opacity: 0; transform-box: fill-box; transform-origin: 50% 50%;" transform="matrix(0.017452, 0.999848, -0.999848, 0.017452, 2.959472, -142.070489)"/>
  <path d="M 236.809 128.119 L 276.513 287.843 L 197.105 287.843 L 236.809 128.119 Z" bx:shape="triangle 197.105 128.119 79.408 159.724 0.5 0 1@50f280ed" style="stroke: rgb(244, 99, 30); fill: rgb(100, 13, 20); transform-box: fill-box; transform-origin: 50% 50%;" transform="matrix(0.66913, -0.743145, 0.743145, 0.66913, -102.549333, -52.564032)"/>
  <path d="M 223.01 294.053 L 248.244 491.709 L 197.777 491.709 L 223.01 294.053 Z" bx:shape="triangle 197.777 294.053 50.467 197.656 0.5 0 1@7d4367de" style="transform-box: fill-box; transform-origin: 50% 50%; fill-rule: nonzero; stroke: rgb(244, 99, 30); fill: rgb(100, 13, 20); stroke-opacity: 0;" transform="matrix(-0.675463, -0.737394, 0.74977, -0.661952, -80.812013, -112.117823)"/>
  <path d="M 333.76 232.376 L 373.814 454.864 L 293.705 454.864 L 333.76 232.376 Z" bx:shape="triangle 293.705 232.376 80.109 222.488 0.5 0 1@d983fe52" style="transform-box: fill-box; transform-origin: 50% 50%; stroke: rgb(224, 156, 123); fill: rgb(56, 4, 14); stroke-opacity: 0;" transform="matrix(0.829038, -0.559193, 0.559193, 0.829038, -171.219158, -197.021922)"/>
</svg>