<svg xmlns="http://www.w3.org/2000/svg" viewBox="0 0 500 500">
  <rect x="236.003" y="410.097" width="54.509" height="68.883" style="stroke: rgb(0, 0, 0); fill: rgb(43, 45, 66);"/>
  <path d="M 290.639 363.283 L 337.025 410.325 L 290.639 410.325 L 290.639 363.283 Z" style="fill: rgb(141, 153, 174); stroke: rgb(141, 153, 174);"/>
  <rect x="235.805" y="363.35" width="55.198" height="46.618" style="fill: rgb(141, 153, 174); stroke: rgb(141, 153, 174);"/>
  <path d="M -291.204 -478.83 L -291.204 -410.06 L -337.59 -410.06 L -291.204 -478.83 Z" style="stroke-width: 1; transform-box: fill-box; transform-origin: 50% 50%; fill: rgb(141, 153, 174); stroke: rgb(141, 153, 174);" transform="matrix(-1, 0, 0, -1, 628.794006, 888.889999)"/>
  <path d="M -235.74 -478.97 L -189.004 -410.161 L -235.74 -410.161 L -235.74 -478.97 Z" style="stroke-width: 1; transform-box: fill-box; transform-origin: 50% 50%; fill: rgb(141, 153, 174); stroke: rgb(141, 153, 174);" transform="matrix(-1, 0, 0, -1, 424.744011, 889.130997)"/>
  <path d="M 236.027 363.067 L 236.027 410.109 L 189.641 410.109 L 236.027 363.067 Z" style="stroke-width: 1; fill: rgb(141, 153, 174); stroke: rgb(141, 153, 174);"/>
  <rect x="159.223" y="72.083" width="66.719" height="104.242" style="stroke: rgb(0, 0, 0); transform-box: fill-box; transform-origin: 50% 50%; fill: rgb(43, 45, 66);" transform="matrix(0.70633, -0.707882, 0.763714, 0.650376, -19.673489, 228.256059)"/>
  <rect x="159.231" y="72.08" width="66.723" height="104.238" style="stroke: rgb(0, 0, 0); stroke-width: 1; transform-origin: 192.592px 124.199px; fill: rgb(43, 45, 66);" transform="matrix(0.706755, 0.707458, -0.753602, 0.660566, 160.379465, 229.051027)"/>
  <rect x="96.993" y="70.495" width="21.826" height="99.286" style="transform-box: fill-box; transform-origin: 50% 50%; fill: rgb(141, 153, 174); stroke: rgb(141, 153, 174);" transform="matrix(0.766609, 0.642114, -0.697284, 0.720398, 74.622911, 132.057523)"/>
  <rect x="96.993" y="70.271" width="21.826" height="98.972" style="stroke-width: 1; transform-origin: 107.906px 119.757px; fill: rgb(141, 153, 174); stroke: rgb(141, 153, 174);" transform="matrix(0.76661, -0.642113, 0.697283, 0.720399, 234.731375, 132.700503)"/>
  <path d="M 349.85 104.196 L 448.978 208.139 L 349.85 208.139 L 349.85 104.196 Z" style="transform-box: fill-box; transform-origin: 50% 50%; fill: rgb(141, 153, 174); stroke: rgb(141, 153, 174);" transform="matrix(0.694658, 0.71934, -0.71934, 0.694658, -10.585113, 52.630317)"/>
  <path d="M 447.112 104.196 L 447.112 208.139 L 348.396 208.139 L 447.112 104.196 Z" style="stroke-width: 1; transform-origin: 397.755px 156.168px; fill: rgb(141, 153, 174); stroke: rgb(141, 153, 174);" transform="matrix(0.694659, -0.719339, 0.719339, 0.694659, -261.482143, 52.309888)"/>
  <path d="M -262.422 -297.67 L -226.005 -223.697 L -298.84 -223.697 L -262.422 -297.67 Z" style="stroke: rgb(0, 0, 0); transform-box: fill-box; transform-origin: 50% 50%; fill: rgb(43, 45, 66);" transform="matrix(-1, 0, 0, -1, 524.844986, 521.367012)"/>
  <path d="M -264.802 -370.07 L -228.385 -296.097 L -301.22 -296.097 L -264.802 -370.07 Z" style="stroke: rgb(0, 0, 0); fill: rgb(43, 45, 66); stroke-width: 1; transform-origin: -264.803px -333.085px; stroke-miterlimit: 1; stroke-opacity: 0;" transform="matrix(1, 0.000001, 0.000001, 1, 527.616252, 658.211232)"/>
  <rect x="160.837" y="456.163" width="105.823" height="98.37" style="fill: rgb(216, 216, 216); stroke: rgb(0, 0, 0); stroke-miterlimit: 1; stroke-opacity: 0; transform-box: fill-box; transform-origin: 50% 50%;" transform="matrix(0.731412, 0.681936, -0.681935, 0.731413, 15.019767, -209.658679)"/>
  <rect x="160.837" y="456.163" width="105.823" height="98.37" style="fill: rgb(216, 216, 216); stroke: rgb(0, 0, 0); stroke-width: 1; stroke-miterlimit: 1; stroke-opacity: 0; transform-origin: 213.749px 505.348px;" transform="matrix(0.747741, -0.66399, 0.663991, 0.74774, 81.53889, -212.449892)"/>
</svg>
